<svg width="20" height="21" viewBox="0 0 20 21" fill="none" xmlns="http://www.w3.org/2000/svg">
<path d="M2.5 10.6875C2.5 10.4389 2.59877 10.2004 2.77459 10.0246C2.9504 9.84877 3.18886 9.75 3.4375 9.75H15.9375C16.1861 9.75 16.4246 9.84877 16.6004 10.0246C16.7762 10.2004 16.875 10.4389 16.875 10.6875C16.875 10.9361 16.7762 11.1746 16.6004 11.3504C16.4246 11.5262 16.1861 11.625 15.9375 11.625H3.4375C3.18886 11.625 2.9504 11.5262 2.77459 11.3504C2.59877 11.1746 2.5 10.9361 2.5 10.6875Z" fill="white"/>
<path d="M9.6875 17.5C9.43886 17.5 9.2004 17.4012 9.02459 17.2254C8.84877 17.0496 8.75 16.8111 8.75 16.5625L8.75 4.0625C8.75 3.81386 8.84877 3.5754 9.02459 3.39959C9.2004 3.22377 9.43886 3.125 9.6875 3.125C9.93614 3.125 10.1746 3.22377 10.3504 3.39959C10.5262 3.5754 10.625 3.81386 10.625 4.0625L10.625 16.5625C10.625 16.8111 10.5262 17.0496 10.3504 17.2254C10.1746 17.4012 9.93614 17.5 9.6875 17.5Z" fill="white"/>
</svg>
