<svg width="80" height="80" viewBox="0 0 80 80" fill="none" xmlns="http://www.w3.org/2000/svg">
<path d="M25.7125 25.2627H54.2V54.2752H25.7125V25.2627Z" fill="url(#paint0_linear_31_8)"/>
<path d="M54.7125 23.4126H25.2875C24.7902 23.4126 24.3133 23.6101 23.9617 23.9618C23.61 24.3134 23.4125 24.7903 23.4125 25.2876V54.7126C23.4125 55.2099 23.61 55.6868 23.9617 56.0384C24.3133 56.3901 24.7902 56.5876 25.2875 56.5876H54.7125C55.2098 56.5876 55.6867 56.3901 56.0383 56.0384C56.3899 55.6868 56.5875 55.2099 56.5875 54.7126V25.2876C56.5875 24.7903 56.3899 24.3134 56.0383 23.9618C55.6867 23.6101 55.2098 23.4126 54.7125 23.4126ZM52.8375 52.8376H27.1625V27.1626H52.8375V52.8376Z" fill="url(#paint1_linear_31_8)"/>
<path d="M76.325 18.0126C76.1518 17.8372 75.9455 17.698 75.718 17.603C75.4906 17.508 75.2465 17.459 75 17.459C74.7535 17.459 74.5095 17.508 74.282 17.603C74.0546 17.698 73.8483 17.8372 73.675 18.0126L68.2375 23.4501C67.1455 21.5848 65.8682 19.8342 64.425 18.2251L76.325 6.3251C76.6562 5.96967 76.8365 5.49955 76.828 5.0138C76.8194 4.52805 76.6226 4.06458 76.2791 3.72105C75.9356 3.37752 75.4721 3.18074 74.9863 3.17217C74.5006 3.1636 74.0305 3.3439 73.675 3.6751L61.775 15.5751C60.1659 14.1319 58.4154 12.8546 56.55 11.7626L61.9875 6.3251C62.3187 5.96967 62.499 5.49955 62.4905 5.0138C62.4819 4.52805 62.2851 4.06458 61.9416 3.72105C61.5981 3.37752 61.1346 3.18074 60.6488 3.17217C60.1631 3.1636 59.693 3.3439 59.3375 3.6751L53.0875 9.9251C48.9618 8.1406 44.5123 7.22623 40.0172 7.23913C35.5221 7.25204 31.078 8.19194 26.9625 10.0001L20.7125 3.7501C20.3571 3.4189 19.887 3.2386 19.4012 3.24717C18.9155 3.25574 18.452 3.45252 18.1085 3.79605C17.7649 4.13958 17.5682 4.60305 17.5596 5.0888C17.551 5.57455 17.7313 6.04467 18.0625 6.4001L23.5 11.8376C21.6347 12.9296 19.8842 14.2069 18.275 15.6501L6.32504 3.6751C5.9696 3.3439 5.49948 3.1636 5.01373 3.17217C4.52798 3.18074 4.06451 3.37752 3.72098 3.72105C3.37745 4.06458 3.18067 4.52805 3.1721 5.0138C3.16353 5.49955 3.34384 5.96967 3.67504 6.3251L15.575 18.2251C14.1319 19.8342 12.8546 21.5848 11.7625 23.4501L6.32504 18.0126C5.9696 17.6814 5.49948 17.5011 5.01373 17.5097C4.52798 17.5182 4.06451 17.715 3.72098 18.0585C3.37745 18.4021 3.18067 18.8655 3.1721 19.3513C3.16353 19.8371 3.34384 20.3072 3.67504 20.6626L9.92504 26.9126C8.12945 31.0355 7.209 35.4861 7.22191 39.983C7.23482 44.4799 8.18081 48.9251 10 53.0376L3.75004 59.2876C3.57467 59.4608 3.43544 59.6672 3.34042 59.8946C3.24539 60.1221 3.19646 60.3661 3.19646 60.6126C3.19646 60.8591 3.24539 61.1032 3.34042 61.3306C3.43544 61.558 3.57467 61.7644 3.75004 61.9376C4.1016 62.2887 4.57816 62.486 5.07504 62.486C5.57191 62.486 6.04847 62.2887 6.40004 61.9376L11.8375 56.5001C12.9296 58.3655 14.2069 60.116 15.65 61.7251L3.67504 73.6751C3.49967 73.8483 3.36044 74.0547 3.26542 74.2821C3.17039 74.5096 3.12146 74.7536 3.12146 75.0001C3.12146 75.2466 3.17039 75.4907 3.26542 75.7181C3.36044 75.9455 3.49967 76.1519 3.67504 76.3251C4.0266 76.6762 4.50316 76.8735 5.00004 76.8735C5.49691 76.8735 5.97347 76.6762 6.32504 76.3251L18.225 64.4251C19.8342 65.8683 21.5847 67.1456 23.45 68.2376L18.0125 73.6751C17.8372 73.8483 17.6979 74.0547 17.6029 74.2821C17.5079 74.5096 17.459 74.7536 17.459 75.0001C17.459 75.2466 17.5079 75.4907 17.6029 75.7181C17.6979 75.9455 17.8372 76.1519 18.0125 76.3251C18.3641 76.6762 18.8407 76.8735 19.3375 76.8735C19.8344 76.8735 20.311 76.6762 20.6625 76.3251L26.9125 70.0751C31.0262 71.8643 35.4641 72.7877 39.95 72.7877C44.436 72.7877 48.8739 71.8643 52.9875 70.0751L59.2375 76.3251C59.5891 76.6762 60.0657 76.8735 60.5625 76.8735C61.0594 76.8735 61.536 76.6762 61.8875 76.3251C62.0629 76.1519 62.2021 75.9455 62.2972 75.7181C62.3922 75.4907 62.4411 75.2466 62.4411 75.0001C62.4411 74.7536 62.3922 74.5096 62.2972 74.2821C62.2021 74.0547 62.0629 73.8483 61.8875 73.6751L56.45 68.2376C58.3154 67.1456 60.0659 65.8683 61.675 64.4251L73.575 76.3251C73.9266 76.6762 74.4032 76.8735 74.9 76.8735C75.3969 76.8735 75.8735 76.6762 76.225 76.3251C76.4004 76.1519 76.5396 75.9455 76.6347 75.7181C76.7297 75.4907 76.7786 75.2466 76.7786 75.0001C76.7786 74.7536 76.7297 74.5096 76.6347 74.2821C76.5396 74.0547 76.4004 73.8483 76.225 73.6751L64.325 61.7751C65.7682 60.166 67.0455 58.4155 68.1375 56.5501L73.575 61.9876C73.9266 62.3387 74.4032 62.536 74.9 62.536C75.3969 62.536 75.8735 62.3387 76.225 61.9876C76.4004 61.8144 76.5396 61.6081 76.6347 61.3806C76.7297 61.1532 76.7786 60.9091 76.7786 60.6626C76.7786 60.4161 76.7297 60.1721 76.6347 59.9446C76.5396 59.7172 76.4004 59.5108 76.225 59.3376L69.975 53.0876C71.7753 48.9768 72.7047 44.5378 72.7047 40.0501C72.7047 35.5624 71.7753 31.1234 69.975 27.0126L76.225 20.7626C76.4226 20.5951 76.583 20.3883 76.6961 20.1554C76.8092 19.9224 76.8724 19.6685 76.8818 19.4097C76.8912 19.1509 76.8466 18.893 76.7507 18.6524C76.6548 18.4119 76.5099 18.194 76.325 18.0126ZM11 40.0001C11 34.2644 12.7009 28.6576 15.8874 23.8886C19.074 19.1195 23.6032 15.4025 28.9022 13.2076C34.2013 11.0127 40.0322 10.4384 45.6577 11.5573C51.2831 12.6763 56.4504 15.4383 60.5061 19.494C64.5619 23.5497 67.3238 28.717 68.4428 34.3425C69.5618 39.9679 68.9875 45.7989 66.7925 51.0979C64.5976 56.397 60.8806 60.9262 56.1116 64.1127C51.3425 67.2993 45.7357 69.0001 40 69.0001C32.3118 68.9902 24.9413 65.9317 19.5049 60.4952C14.0685 55.0588 11.01 47.6883 11 40.0001Z" fill="url(#paint2_linear_31_8)"/>
<defs>
<linearGradient id="paint0_linear_31_8" x1="26.0586" y1="40.1189" x2="53.8518" y2="39.4444" gradientUnits="userSpaceOnUse">
<stop stop-color="#58C8DD"/>
<stop offset="1" stop-color="#53A7DD"/>
</linearGradient>
<linearGradient id="paint1_linear_31_8" x1="23.8155" y1="40.4002" x2="56.1812" y2="39.6003" gradientUnits="userSpaceOnUse">
<stop stop-color="#58C8DD"/>
<stop offset="1" stop-color="#53A7DD"/>
</linearGradient>
<linearGradient id="paint2_linear_31_8" x1="4.01754" y1="40.9115" x2="75.9797" y2="39.1315" gradientUnits="userSpaceOnUse">
<stop stop-color="#58C8DD"/>
<stop offset="1" stop-color="#53A7DD"/>
</linearGradient>
</defs>
</svg>
