<svg width="76" height="80" viewBox="0 0 76 80" fill="none" xmlns="http://www.w3.org/2000/svg">
<path fill-rule="evenodd" clip-rule="evenodd" d="M60.0169 11.4068C59.4165 11.4069 58.8295 11.585 58.3303 11.9187C57.8311 12.2524 57.4421 12.7266 57.2124 13.2814C56.9827 13.8362 56.9227 14.4467 57.0399 15.0356C57.1572 15.6245 57.4464 16.1654 57.8711 16.5899C58.2958 17.0145 58.8368 17.3035 59.4258 17.4205C60.0147 17.5375 60.6252 17.4773 61.1799 17.2474C61.7346 17.0174 62.2086 16.6282 62.5421 16.1288C62.8756 15.6295 63.0535 15.0425 63.0534 14.442C63.0523 13.6371 62.732 12.8655 62.1628 12.2965C61.5935 11.7275 60.8218 11.4075 60.0169 11.4068ZM60.0169 19.978C61.1117 19.9783 62.182 19.654 63.0925 19.046C64.003 18.438 64.7127 17.5737 65.1319 16.5624C65.5511 15.551 65.661 14.438 65.4477 13.3642C65.2344 12.2904 64.7075 11.304 63.9335 10.5296C63.1595 9.75531 62.1733 9.2279 61.0996 9.0141C60.0259 8.80029 58.9129 8.9097 57.9014 9.32848C56.8899 9.74726 56.0252 10.4566 55.4169 11.3668C54.8085 12.277 54.4837 13.3472 54.4835 14.442C54.4847 15.9094 55.068 17.3165 56.1054 18.3543C57.1428 19.3922 58.5495 19.9761 60.0169 19.978ZM53.999 62.6777C58.9399 59.8743 63.0457 55.8065 65.895 50.8919C68.7442 45.9773 70.2343 40.3929 70.2122 34.7121C70.2122 33.9754 70.1872 33.2354 70.1372 32.4996C68.4056 33.9355 66.3914 34.9911 64.2253 35.598C62.0593 36.2049 59.7898 36.3495 57.5642 36.0224C55.3387 35.6954 53.2068 34.904 51.3069 33.6995C49.407 32.4951 47.7816 30.9047 46.5362 29.0314C45.2909 27.1581 44.4533 25.0438 44.078 22.8259C43.7027 20.6079 43.798 18.3358 44.3577 16.157C44.9174 13.9783 45.929 11.9416 47.3268 10.1791C48.7247 8.41669 50.4775 6.96789 52.4716 5.92678C47.9804 3.67394 43.0253 2.50082 38.0008 2.50082C32.9763 2.50082 28.0213 3.67394 23.5301 5.92678C25.525 6.96745 27.2787 8.41606 28.6773 10.1786C30.0759 11.9411 31.0882 13.978 31.6484 16.1572C32.2086 18.3363 32.3042 20.609 31.929 22.8275C31.5538 25.046 30.7162 27.1608 29.4705 29.0345C28.2249 30.9083 26.5991 32.4991 24.6987 33.7036C22.7982 34.9081 20.6657 35.6995 18.4396 36.0263C16.2135 36.3531 13.9435 36.2079 11.7771 35.6004C9.61067 34.9928 7.59627 33.9364 5.8647 32.4996C5.8147 33.2354 5.7897 33.9746 5.7897 34.7121C5.76752 40.3932 7.25755 45.9778 10.1068 50.8927C12.9561 55.8076 17.0619 59.8757 22.0029 62.6795C22.3251 58.6575 24.1503 54.9045 27.115 52.1677C30.0798 49.4309 33.9665 47.9112 38.0013 47.9112C42.0361 47.9112 45.9229 49.4309 48.8877 52.1677C51.8524 54.9045 53.6776 58.6575 53.9998 62.6795L53.999 62.6777ZM49.8094 70.5835C50.9682 68.522 51.5674 66.1931 51.5471 63.8284C51.5268 61.4636 50.8879 59.1453 49.6939 57.1041C48.4999 55.0628 46.7924 53.3696 44.7411 52.1929C42.6898 51.0162 40.3662 50.397 38.0014 50.3967C35.6366 50.3965 33.3129 51.0153 31.2614 52.1916C29.2099 53.3679 27.502 55.0608 26.3076 57.1018C25.1132 59.1429 24.4738 61.461 24.4531 63.8258C24.4324 66.1906 25.0311 68.5196 26.1896 70.5812V69.4595C26.1896 67.3015 27.741 65.6482 30.445 64.9237C35.3996 63.6377 40.6005 63.6377 45.5552 64.9237C48.2599 65.6487 49.8094 67.3015 49.8094 69.4595V70.5835ZM33.5847 76.7584C36.4462 77.7448 39.5555 77.7448 42.417 76.7584V70.84C42.417 70.5084 42.5487 70.1905 42.7831 69.9561C43.0175 69.7217 43.3355 69.59 43.667 69.59C43.9985 69.59 44.3164 69.7217 44.5508 69.9561C44.7853 70.1905 44.917 70.5084 44.917 70.84V75.5954C45.78 75.0827 46.5832 74.4754 47.3117 73.7847V69.4597C47.3117 68.2395 46.0044 67.6335 44.9092 67.3387C40.3784 66.1657 35.6235 66.1657 31.0927 67.3387C29.9975 67.6335 28.6928 68.2387 28.6928 69.4597V73.7832C29.4218 74.473 30.2244 75.0805 31.0862 75.5949V70.84C31.0862 70.5084 31.2179 70.1905 31.4523 69.9561C31.6867 69.7217 32.0047 69.59 32.3362 69.59C32.6677 69.59 32.9856 69.7217 33.2201 69.9561C33.4545 70.1905 33.5862 70.5084 33.5862 70.84L33.5847 76.7584ZM21.7656 25.7872C22.0972 25.7872 22.4151 25.9189 22.6495 26.1533C22.8839 26.3877 23.0156 26.7057 23.0156 27.0372V31.7939C23.8776 31.2798 24.6803 30.6722 25.4091 29.9822V25.6572C25.4091 24.4372 24.1031 23.8297 23.0091 23.5372C18.4787 22.3615 13.7231 22.3615 9.19263 23.5372C8.0974 23.8297 6.79143 24.4372 6.79143 25.6572V29.9807C7.52014 30.6712 8.32281 31.2792 9.18488 31.7936V27.0372C9.18488 26.7057 9.31658 26.3877 9.551 26.1533C9.78541 25.9189 10.1033 25.7872 10.4349 25.7872C10.7664 25.7872 11.0843 25.9189 11.3187 26.1533C11.5531 26.3877 11.6848 26.7057 11.6848 27.0372V32.9559C14.5468 33.9421 17.6565 33.9421 20.5184 32.9559V27.0372C20.5184 26.7057 20.6501 26.3877 20.8845 26.1533C21.1189 25.9189 21.4369 25.7872 21.7684 25.7872H21.7656ZM16.0993 6.59978C13.7346 6.59859 11.4108 7.21663 9.35914 8.3924C7.30747 9.56818 5.59945 11.2607 4.40501 13.3016C3.21057 15.3424 2.57134 17.6605 2.55094 20.0251C2.53054 22.3898 3.12967 24.7185 4.28872 26.7797V25.6577C4.28872 23.4999 5.8402 21.8467 8.5429 21.1222C13.4978 19.8345 18.6995 19.8345 23.6544 21.1222C26.3581 21.8472 27.9085 23.4999 27.9085 25.6577V26.7827C29.0679 24.7215 29.6674 22.3925 29.6473 20.0277C29.6271 17.6629 28.9881 15.3445 27.7938 13.3033C26.5995 11.2621 24.8915 9.56922 22.8398 8.3931C20.7881 7.21698 18.4642 6.59886 16.0993 6.59978ZM65.5673 25.7872C65.8988 25.7872 66.2168 25.9189 66.4512 26.1533C66.6856 26.3877 66.8173 26.7057 66.8173 27.0372V31.7939C67.6795 31.2801 68.4822 30.6725 69.2107 29.9822V25.6572C69.2107 24.4372 67.9045 23.8297 66.8096 23.5372C62.2794 22.3615 57.5242 22.3615 52.9941 23.5372C51.8966 23.8309 50.5906 24.4372 50.5906 25.6572V29.9807C51.3196 30.6708 52.1222 31.2788 52.9841 31.7936V27.0372C52.9841 26.7057 53.1157 26.3877 53.3502 26.1533C53.5846 25.9189 53.9025 25.7872 54.234 25.7872C54.5656 25.7872 54.8835 25.9189 55.1179 26.1533C55.3523 26.3877 55.484 26.7057 55.484 27.0372V32.9559C58.3455 33.9421 61.4548 33.9421 64.3163 32.9559V27.0372C64.3163 26.7057 64.448 26.3877 64.6824 26.1533C64.9169 25.9189 65.2358 25.7872 65.5673 25.7872ZM73.4497 20.1487C73.4507 18.0769 72.9765 16.0325 72.0637 14.1727C71.1508 12.3128 69.8236 10.6871 68.1841 9.42051C66.5446 8.15392 64.6365 7.28022 62.6064 6.86657C60.5763 6.45293 58.4785 6.51038 56.4741 7.03448C54.4697 7.55859 52.6122 8.5354 51.0445 9.88979C49.4767 11.2442 48.2405 12.9401 47.4308 14.8471C46.6211 16.7541 46.2595 18.8214 46.3738 20.8901C46.4882 22.9587 47.0754 24.9735 48.0904 26.7797V25.6577C48.0904 23.4999 49.6421 21.8467 52.3458 21.1222C57.3003 19.8345 62.5016 19.8345 67.456 21.1222C70.161 21.8472 71.7102 23.4999 71.7102 25.6577V26.7827C72.8527 24.7584 73.452 22.4732 73.4497 20.1487ZM59.8999 4.10029C58.4062 4.09905 56.9197 4.30725 55.4838 4.71879C50.1754 1.62822 44.1426 0 38.0001 0C31.8576 0 25.8248 1.62822 20.5164 4.71879C17.2426 3.77937 13.7548 3.90633 10.5579 5.08126C7.36106 6.2562 4.62112 8.41815 2.73482 11.2541C0.848516 14.09 -0.0862461 17.4527 0.065882 20.8552C0.21801 24.2578 1.44913 27.5236 3.58099 30.1799C3.38569 31.6827 3.28799 33.1967 3.28849 34.7121C3.28644 41.0753 5.03379 47.3166 8.33955 52.7536C11.6453 58.1907 16.3822 62.6143 22.0324 65.5407C22.4266 69.5023 24.2792 73.176 27.2304 75.8481C30.1816 78.5202 34.0206 80 38.0017 80C41.9828 80 45.8218 78.5202 48.773 75.8481C51.7242 73.176 53.5768 69.5023 53.971 65.5407C60.3041 62.2535 65.4718 57.0964 68.7721 50.7701C72.0723 44.4438 73.3453 37.2548 72.4179 30.1799C74.3114 27.8216 75.4995 24.9759 75.8451 21.9712C76.1906 18.9666 75.6796 15.9255 74.3709 13.1989C73.0623 10.4722 71.0093 8.17116 68.449 6.56126C65.8887 4.95136 62.9243 4.09822 59.8999 4.10029ZM16.2143 11.4078C15.6137 11.4076 15.0267 11.5856 14.5273 11.9191C14.0279 12.2526 13.6387 12.7268 13.4088 13.2816C13.1789 13.8364 13.1187 14.4469 13.2359 15.0358C13.353 15.6248 13.6421 16.1659 14.0668 16.5905C14.4914 17.0151 15.0324 17.3043 15.6214 17.4214C16.2104 17.5385 16.8209 17.4784 17.3757 17.2485C17.9304 17.0186 18.4046 16.6294 18.7381 16.13C19.0716 15.6306 19.2496 15.0435 19.2494 14.443C19.2479 13.6385 18.9277 12.8673 18.3588 12.2984C17.7899 11.7295 17.0188 11.4093 16.2143 11.4078ZM16.2143 19.979C17.3089 19.9789 18.379 19.6542 19.2892 19.0459C20.1994 18.4377 20.9087 17.5732 21.3276 16.5618C21.7465 15.5504 21.8561 14.4375 21.6425 13.3638C21.429 12.2902 20.9018 11.3039 20.1278 10.5298C19.3537 9.75574 18.3675 9.22855 17.2939 9.01493C16.2202 8.80131 15.1073 8.91085 14.0959 9.3297C13.0845 9.74854 12.2201 10.4579 11.6118 11.368C11.0035 12.2782 10.6788 13.3483 10.6786 14.443C10.6798 15.9108 11.2634 17.3182 12.3013 18.3561C13.3391 19.394 14.7465 19.9777 16.2143 19.979ZM38.1161 61.282C38.7164 61.2819 39.3031 61.1037 39.8022 60.7701C40.3012 60.4365 40.6902 59.9625 40.9198 59.4079C41.1495 58.8532 41.2096 58.243 41.0924 57.6542C40.9753 57.0655 40.6863 56.5247 40.2618 56.1002C39.8374 55.6757 39.2966 55.3866 38.7079 55.2694C38.1191 55.1522 37.5089 55.2123 36.9542 55.4419C36.3996 55.6715 35.9255 56.0604 35.5919 56.5594C35.2583 57.0585 35.0801 57.6452 35.0799 58.2455C35.0802 59.0507 35.4002 59.8228 35.9695 60.3922C36.5388 60.9616 37.3109 61.2816 38.1161 61.282ZM38.1161 52.7108C37.0213 52.7109 35.9511 53.0356 35.0408 53.644C34.1306 54.2523 33.4212 55.1169 33.0023 56.1285C32.5835 57.14 32.474 58.253 32.6877 59.3268C32.9014 60.4005 33.4287 61.3868 34.2029 62.1609C34.9771 62.935 35.9635 63.462 37.0373 63.6755C38.1111 63.889 39.2241 63.7792 40.2355 63.3601C41.2469 62.941 42.1114 62.2314 42.7195 61.321C43.3276 60.4106 43.6521 59.3403 43.652 58.2455C43.6496 56.7783 43.0655 55.3718 42.0278 54.3345C40.99 53.2972 39.5833 52.7125 38.1161 52.7108Z" fill="url(#paint0_linear_110_52)"/>
<defs>
<linearGradient id="paint0_linear_110_52" x1="-24.4442" y1="41.542" x2="100.433" y2="38.4556" gradientUnits="userSpaceOnUse">
<stop stop-color="#58C8DD"/>
<stop offset="1" stop-color="#53A7DD"/>
</linearGradient>
</defs>
</svg>
