<svg width="26" height="21" viewBox="0 0 26 21" fill="none" xmlns="http://www.w3.org/2000/svg">
<path d="M21.9203 2.50455C20.2957 1.74719 18.5366 1.19749 16.7043 0.879883C16.6721 0.880342 16.6413 0.893514 16.6188 0.91653C16.3989 1.31964 16.1424 1.84491 15.9714 2.24803C14.0278 1.95504 12.0514 1.95504 10.1079 2.24803C9.93686 1.8327 9.68034 1.31964 9.44824 0.91653C9.43603 0.892099 9.39938 0.879883 9.36273 0.879883C7.5304 1.19749 5.78357 1.74719 4.14669 2.50455C4.13447 2.50455 4.12225 2.51677 4.11004 2.52898C0.787404 7.50072 -0.128763 12.3381 0.323213 17.1266C0.323213 17.151 0.335428 17.1755 0.359859 17.1877C2.55866 18.8001 4.67196 19.7774 6.76082 20.4248C6.79746 20.437 6.83411 20.4248 6.84633 20.4004C7.33495 19.7285 7.77471 19.02 8.15339 18.2749C8.17782 18.226 8.15339 18.1771 8.10453 18.1649C7.40824 17.8962 6.7486 17.5786 6.10118 17.2121C6.05231 17.1877 6.05231 17.1144 6.08896 17.0777C6.22333 16.98 6.3577 16.8701 6.49207 16.7723C6.51651 16.7479 6.55315 16.7479 6.57758 16.7601C10.7797 18.678 15.3117 18.678 19.465 16.7601C19.4894 16.7479 19.5261 16.7479 19.5505 16.7723C19.6849 16.8823 19.8193 16.98 19.9536 17.0899C20.0025 17.1266 20.0025 17.1999 19.9414 17.2243C19.3062 17.603 18.6343 17.9084 17.9381 18.1771C17.8892 18.1893 17.877 18.2504 17.8892 18.2871C18.2801 19.0322 18.7199 19.7407 19.1963 20.4126C19.2329 20.4248 19.2696 20.437 19.3062 20.4248C21.4073 19.7774 23.5206 18.8001 25.7194 17.1877C25.7438 17.1755 25.756 17.151 25.756 17.1266C26.2935 11.5929 24.8643 6.79222 21.9692 2.52898C21.957 2.51677 21.9448 2.50455 21.9203 2.50455ZM8.7886 14.2071C7.5304 14.2071 6.47986 13.0466 6.47986 11.6174C6.47986 10.1881 7.50597 9.02767 8.7886 9.02767C10.0835 9.02767 11.1096 10.2004 11.0973 11.6174C11.0973 13.0466 10.0712 14.2071 8.7886 14.2071ZM17.3029 14.2071C16.0446 14.2071 14.9941 13.0466 14.9941 11.6174C14.9941 10.1881 16.0202 9.02767 17.3029 9.02767C18.5977 9.02767 19.6238 10.2004 19.6116 11.6174C19.6116 13.0466 18.5977 14.2071 17.3029 14.2071Z" fill="white"/>
</svg>
