<svg width="52" height="80" viewBox="0 0 52 80" fill="none" xmlns="http://www.w3.org/2000/svg">
<path d="M49.762 49.4803C48.9048 49.4619 48.1809 50.1452 48.1611 51.0097C48.0701 54.9913 46.6036 58.8617 44.0319 61.9081L36.4328 70.9091C36.1944 71.1916 36.0634 71.5494 36.0634 71.9191V75.2963C36.0634 76.1636 35.3578 76.8692 34.4904 76.8692H27.5653V65.2508C27.5653 61.7547 28.9094 58.4506 31.3495 55.9475C31.3561 55.9408 31.3625 55.9341 31.3689 55.9274L38.4453 48.4044C39.1581 47.6466 40.3383 47.5794 41.1326 48.2516C41.955 48.9475 42.0584 50.1831 41.3633 51.0061L37.8555 55.1581C37.2975 55.8186 37.3805 56.8063 38.0411 57.3642C38.7012 57.9224 39.6894 57.8392 40.2472 57.1786L43.755 53.0266C45.1161 51.4156 45.3 49.1967 44.3962 47.4256V36.0011C44.3962 34.9617 45.2417 34.1161 46.2811 34.1161C47.3204 34.1161 48.1661 34.9617 48.1661 36.0011V36.9361C48.1661 37.8006 48.867 38.5017 49.7317 38.5017C50.5962 38.5017 51.2973 37.8008 51.2973 36.9361V36.0011C51.2973 33.2352 49.0472 30.985 46.2812 30.985C43.5154 30.985 41.2653 33.2352 41.2653 36.0011V44.8524C39.4895 44.3466 37.5081 44.831 36.1648 46.2589L29.0978 53.7721C27.8086 55.0967 26.7686 56.603 26 58.231C25.2314 56.6028 24.1914 55.0964 22.902 53.7717L15.8351 46.2589C14.4919 44.831 12.5106 44.3453 10.7347 44.8514V36.001C10.7347 33.235 8.48451 30.9849 5.71873 30.9849C2.95279 30.9849 0.702637 33.235 0.702637 36.001V50.6039C0.702637 55.4742 2.43295 60.2063 5.57514 63.928L12.8048 72.4914V75.2961C12.8048 77.89 14.915 80.0002 17.5089 80.0002H34.4909C37.0848 80.0002 39.195 77.89 39.195 75.2961V72.4914L46.4247 63.928C49.4561 60.3375 51.1845 55.775 51.2917 51.0813C51.3111 50.2169 50.6265 49.5 49.762 49.4803ZM15.9358 75.2961V71.9189C15.9358 71.5492 15.8048 71.1914 15.5664 70.9089L7.96732 61.908C5.30154 58.7505 3.83357 54.736 3.83357 50.6039V36.001C3.83357 34.9616 4.6792 34.116 5.71857 34.116C6.75795 34.116 7.60342 34.9616 7.60342 36.001V47.4245C6.69889 49.1958 6.88326 51.4152 8.24467 53.0264L11.7525 57.1785C12.3101 57.8391 13.2983 57.9219 13.9586 57.3641C14.6192 56.8061 14.7022 55.8185 14.1442 55.158L10.6364 51.006C9.94123 50.183 10.0445 48.9474 10.8672 48.2514C11.6609 47.5797 12.8415 47.6466 13.5544 48.4042L20.6308 55.9272C20.6372 55.9339 20.6436 55.9406 20.6501 55.9474C23.0903 58.4506 24.4344 61.7546 24.4344 65.2506V76.8691H17.5089C16.6414 76.8691 15.9358 76.1635 15.9358 75.2961Z" fill="url(#paint0_linear_110_43)"/>
<path d="M18.1967 24.2158C19.0048 24.5235 19.9092 24.1182 20.217 23.3102L20.8268 21.709H25.0772L25.6798 23.3057C25.9164 23.9326 26.512 24.3188 27.1448 24.3188C27.3284 24.3188 27.5153 24.2863 27.6973 24.2174C28.5062 23.9122 28.9145 23.009 28.6092 22.1999L24.655 11.7219C24.6497 11.7077 24.644 11.6933 24.6381 11.6791C24.3582 10.9991 23.7029 10.5601 22.9676 10.5601C22.9672 10.5601 22.9665 10.5601 22.9661 10.5601C22.2303 10.5607 21.5747 11.001 21.2957 11.6819C21.2909 11.694 21.2861 11.706 21.2815 11.718L17.2911 22.1955C16.9832 23.0037 17.3886 23.9083 18.1967 24.2158ZM23.8954 18.5779H22.0193L22.9617 16.1037L23.8954 18.5779Z" fill="url(#paint1_linear_110_43)"/>
<path d="M32.2191 24.3183C33.0836 24.3183 33.7847 23.6174 33.7847 22.7527V12.1257C33.7847 11.2612 33.0838 10.5601 32.2191 10.5601C31.3545 10.5601 30.6534 11.261 30.6534 12.1257V22.7529C30.6536 23.6174 31.3545 24.3183 32.2191 24.3183Z" fill="url(#paint2_linear_110_43)"/>
<path d="M10.13 23.4808C9.26543 23.4808 8.56433 24.1817 8.56433 25.0464C8.56433 25.9111 9.26527 26.612 10.13 26.612H11.6064V28.5011C11.6064 30.3361 13.0993 31.8289 14.9342 31.8289H16.8226V33.3047C16.8226 34.1692 17.5236 34.8703 18.3882 34.8703C19.2529 34.8703 19.9539 34.1694 19.9539 33.3047V31.8289H24.434V33.3047C24.434 34.1692 25.135 34.8703 25.9996 34.8703C26.8643 34.8703 27.5653 34.1694 27.5653 33.3047V31.8289H32.0454V33.3047C32.0454 34.1692 32.7464 34.8703 33.6111 34.8703C34.4756 34.8703 35.1767 34.1694 35.1767 33.3047V31.8289H37.0651C38.9001 31.8289 40.3929 30.3359 40.3929 28.5011V26.612H41.8693C42.7339 26.612 43.435 25.9111 43.435 25.0464C43.435 24.1817 42.734 23.4808 41.8693 23.4808H40.3929V19.0008H41.8693C42.7339 19.0008 43.435 18.2998 43.435 17.4352C43.435 16.5706 42.734 15.8695 41.8693 15.8695H40.3929V11.3894H41.8693C42.7339 11.3894 43.435 10.6884 43.435 9.82375C43.435 8.95906 42.734 8.25813 41.8693 8.25813H40.3929V6.36938C40.3929 4.53437 38.9 3.04156 37.0651 3.04156H35.1767V1.56563C35.1767 0.701094 34.4757 0 33.6111 0C32.7465 0 32.0454 0.700938 32.0454 1.56563V3.04156H27.5653V1.56563C27.5653 0.700938 26.8642 0 25.9996 0C25.1351 0 24.434 0.700938 24.434 1.56563V3.04156H19.9539V1.56563C19.9539 0.701094 19.2529 0 18.3882 0C17.5236 0 16.8226 0.700938 16.8226 1.56563V3.04156H14.9342C13.0992 3.04156 11.6064 4.53453 11.6064 6.36938V8.25828H10.13C9.26543 8.25828 8.56433 8.95922 8.56433 9.82391C8.56433 10.6886 9.26527 11.3895 10.13 11.3895H11.6064V15.8697H10.13C9.26543 15.8697 8.56433 16.5706 8.56433 17.4353C8.56433 18.2998 9.26527 19.0009 10.13 19.0009H11.6064V23.4809H10.13V23.4808ZM14.7376 6.36938C14.7376 6.26078 14.8259 6.17266 14.9343 6.17266H37.065C37.1735 6.17266 37.2617 6.26094 37.2617 6.36938V28.5009C37.2617 28.6095 37.1734 28.6977 37.065 28.6977H14.9343C14.8257 28.6977 14.7376 28.6094 14.7376 28.5009V6.36938Z" fill="url(#paint3_linear_110_43)"/>
<path d="M49.7314 45.5736C50.5961 45.5736 51.297 44.8727 51.297 44.008C51.297 43.1433 50.5961 42.4424 49.7314 42.4424C48.8667 42.4424 48.1658 43.1433 48.1658 44.008C48.1658 44.8727 48.8667 45.5736 49.7314 45.5736Z" fill="url(#paint4_linear_110_43)"/>
<defs>
<linearGradient id="paint0_linear_110_43" x1="1.31727" y1="56.0837" x2="50.6758" y2="54.8244" gradientUnits="userSpaceOnUse">
<stop stop-color="#58C8DD"/>
<stop offset="1" stop-color="#53A7DD"/>
</linearGradient>
<linearGradient id="paint1_linear_110_43" x1="17.328" y1="17.6054" x2="28.5714" y2="17.3727" gradientUnits="userSpaceOnUse">
<stop stop-color="#58C8DD"/>
<stop offset="1" stop-color="#53A7DD"/>
</linearGradient>
<linearGradient id="paint2_linear_110_43" x1="30.6915" y1="17.6051" x2="33.7481" y2="17.5879" gradientUnits="userSpaceOnUse">
<stop stop-color="#58C8DD"/>
<stop offset="1" stop-color="#53A7DD"/>
</linearGradient>
<linearGradient id="paint3_linear_110_43" x1="8.98795" y1="17.8557" x2="43.0079" y2="17.0149" gradientUnits="userSpaceOnUse">
<stop stop-color="#58C8DD"/>
<stop offset="1" stop-color="#53A7DD"/>
</linearGradient>
<linearGradient id="paint4_linear_110_43" x1="48.2038" y1="44.0458" x2="51.2587" y2="43.9703" gradientUnits="userSpaceOnUse">
<stop stop-color="#58C8DD"/>
<stop offset="1" stop-color="#53A7DD"/>
</linearGradient>
</defs>
</svg>
