<svg width="43" height="43" viewBox="0 0 43 43" fill="none" xmlns="http://www.w3.org/2000/svg">
<path d="M4.875 42.875C3.56875 42.875 2.45092 42.4103 1.5215 41.4809C0.592083 40.5515 0.126583 39.4328 0.125 38.125V4.875C0.125 3.56875 0.5905 2.45092 1.5215 1.5215C2.4525 0.592083 3.57033 0.126583 4.875 0.125H38.125C39.4313 0.125 40.5499 0.5905 41.4809 1.5215C42.4119 2.4525 42.8766 3.57033 42.875 4.875V38.125C42.875 39.4313 42.4103 40.5499 41.4809 41.4809C40.5515 42.4119 39.4328 42.8766 38.125 42.875H4.875ZM4.875 38.125H38.125V4.875H4.875V38.125ZM7.25 33.375H35.75L26.8438 21.5L19.7188 31L14.375 23.875L7.25 33.375Z" fill="url(#paint0_linear_138_62)"/>
<defs>
<linearGradient id="paint0_linear_138_62" x1="0.644339" y1="22.0156" x2="42.3515" y2="20.9848" gradientUnits="userSpaceOnUse">
<stop stop-color="#58C8DD"/>
<stop offset="1" stop-color="#53A7DD"/>
</linearGradient>
</defs>
</svg>
