<svg width="43" height="51" viewBox="0 0 43 51" fill="none" xmlns="http://www.w3.org/2000/svg">
<path d="M38.125 12.25H33.375C33.375 5.6 28.15 0.375 21.5 0.375C14.85 0.375 9.625 5.6 9.625 12.25H4.875C2.2625 12.25 0.125 14.3875 0.125 17V45.5C0.125 48.1125 2.2625 50.25 4.875 50.25H38.125C40.7375 50.25 42.875 48.1125 42.875 45.5V17C42.875 14.3875 40.7375 12.25 38.125 12.25ZM21.5 5.125C25.5375 5.125 28.625 8.2125 28.625 12.25H14.375C14.375 8.2125 17.4625 5.125 21.5 5.125ZM38.125 45.5H4.875V17H38.125V45.5ZM21.5 26.5C17.4625 26.5 14.375 23.4125 14.375 19.375H9.625C9.625 26.025 14.85 31.25 21.5 31.25C28.15 31.25 33.375 26.025 33.375 19.375H28.625C28.625 23.4125 25.5375 26.5 21.5 26.5Z" fill="url(#paint0_linear_138_46)"/>
<defs>
<linearGradient id="paint0_linear_138_46" x1="0.644339" y1="25.914" x2="42.3582" y2="25.0303" gradientUnits="userSpaceOnUse">
<stop stop-color="#58C8DD"/>
<stop offset="1" stop-color="#53A7DD"/>
</linearGradient>
</defs>
</svg>
