<svg width="62" height="62" viewBox="0 0 62 62" fill="none" xmlns="http://www.w3.org/2000/svg">
<circle cx="31" cy="31" r="31" fill="url(#paint0_linear_34_212)"/>
<path d="M23.592 44L22.248 39.744H14.792L13.448 44H9.64L16.904 22.24H20.296L27.592 44H23.592ZM16.872 33.088L15.88 36.224H21.128L20.136 33.088L18.536 27.584L16.872 33.088ZM34.7468 44H30.9068V22.24H34.7468V44ZM46.5105 45.6C45.8065 47.5627 44.9105 48.9707 43.8225 49.824C42.7345 50.6987 41.2412 51.136 39.3425 51.136V47.456C40.4732 47.4133 41.3585 47.1573 41.9985 46.688C42.6598 46.24 43.1505 45.6107 43.4705 44.8L43.7585 44.064L37.9665 27.776H41.6145L44.3985 35.872L45.4865 39.296L46.5425 35.872L49.1985 27.776H52.8465L46.5105 45.6Z" fill="white"/>
<defs>
<linearGradient id="paint0_linear_34_212" x1="-3.34495e-07" y1="27.5" x2="43" y2="31" gradientUnits="userSpaceOnUse">
<stop stop-color="#412F49"/>
<stop offset="1" stop-color="#231823"/>
</linearGradient>
</defs>
</svg>
