<svg width="24" height="21" viewBox="0 0 24 21" fill="none" xmlns="http://www.w3.org/2000/svg">
<path fill-rule="evenodd" clip-rule="evenodd" d="M20.6407 1.0136C20.922 0.8952 21.2299 0.854366 21.5323 0.895344C21.8347 0.936321 22.1207 1.05761 22.3603 1.24659C22.6 1.43557 22.7846 1.68533 22.895 1.96988C23.0053 2.25442 23.0374 2.56335 22.9879 2.8645L20.4062 18.5244C20.1558 20.0349 18.4984 20.9012 17.113 20.1487C15.9542 19.5193 14.2331 18.5494 12.685 17.5374C11.9109 17.0309 9.53979 15.4088 9.8312 14.2545C10.0816 13.2676 14.0658 9.55896 16.3424 7.35403C17.236 6.48777 16.8285 5.98805 15.7732 6.78487C13.1528 8.76327 8.94559 11.7719 7.55457 12.6188C6.32746 13.3655 5.68772 13.493 4.92277 13.3655C3.52719 13.1333 2.23292 12.7736 1.17656 12.3353C-0.250889 11.7434 -0.181451 9.78093 1.17542 9.2095L20.6407 1.0136Z" fill="white"/>
</svg>
