<svg width="34" height="30" viewBox="0 0 34 30" fill="none" xmlns="http://www.w3.org/2000/svg">
<path fill-rule="evenodd" clip-rule="evenodd" d="M14.739 29.4782C6.60899 29.4782 0 22.8691 0 14.7391C0 6.60906 6.60899 0 14.739 0C18.8317 0 22.6479 1.63156 25.4685 4.61805C25.8169 5.01084 25.2202 5.51885 24.8877 5.14355C22.233 2.32295 18.6381 0.774289 14.739 0.774289C7.0515 0.801819 0.801897 7.0515 0.801897 14.7391C0.801897 22.4267 7.0515 28.6764 14.7392 28.6764C22.4268 28.6764 28.6764 22.4267 28.6764 14.7391C28.6764 11.8908 27.8191 9.15319 26.2152 6.80264C25.9068 6.3609 26.5937 5.90905 26.8789 6.36012C28.5934 8.82126 29.4783 11.7248 29.4783 14.739C29.4782 22.8691 22.8691 29.4782 14.739 29.4782Z" fill="url(#paint0_linear_9_815)"/>
<path fill-rule="evenodd" clip-rule="evenodd" d="M14.739 26.4364C8.29581 26.4364 3.04175 21.1822 3.04175 14.7391C3.04175 8.29589 8.29581 3.04175 14.739 3.04175C17.8085 3.04175 20.7121 4.23079 22.8967 6.36016C23.2829 6.7415 22.6877 7.28473 22.3436 6.91327C20.2973 4.92225 17.5873 3.81619 14.7389 3.81619C8.73817 3.81619 3.84357 8.71072 3.84357 14.7115C3.84357 20.7123 8.73817 25.6069 14.7389 25.6069C20.7396 25.6069 25.6342 20.7123 25.6342 14.7115C25.6342 12.6099 25.0258 10.5635 23.8921 8.7937C23.609 8.32632 24.2871 7.94231 24.5558 8.35118C29.5272 15.9164 24.132 26.4364 14.739 26.4364Z" fill="url(#paint1_linear_9_815)"/>
<path fill-rule="evenodd" clip-rule="evenodd" d="M15.1263 22.316C14.9604 22.316 14.8221 22.2055 14.7668 22.0672C14.7392 22.0119 12.361 15.8729 8.68311 13.55C7.96412 13.1076 7.41116 12.6374 7.63235 11.5866C7.85353 10.5634 8.54491 9.98272 9.78925 9.70616C12.0014 9.23604 14.3796 12.665 15.2646 14.0754C18.3616 9.56796 24.556 2.4887 33.5709 1.65911C34.0058 1.60813 34.1666 2.25277 33.7644 2.4334C33.6262 2.4887 20.7397 8.37892 15.5134 22.0949C15.4304 22.2331 15.2922 22.316 15.1263 22.316ZM10.204 10.4528C10.121 10.4528 10.0381 10.4528 9.95513 10.4805C8.76609 10.7293 8.51715 11.2548 8.40656 11.7525C8.29589 12.2227 8.37887 12.4162 9.09786 12.8862C12.1396 14.8219 14.2967 19.0253 15.1263 20.8781C19.302 10.8123 27.4873 5.06035 31.3311 2.79286C23.5605 4.53501 18.1958 11.0612 15.5963 15.0156C15.4334 15.2475 15.0668 15.2332 14.9327 14.988C14.1584 13.6884 11.9185 10.4528 10.204 10.4528Z" fill="url(#paint2_linear_9_815)"/>
<defs>
<linearGradient id="paint0_linear_9_815" x1="3.90209" y1="-2" x2="20.4326" y2="0.55123" gradientUnits="userSpaceOnUse">
<stop stop-color="#47295C"/>
<stop offset="1" stop-color="#C4528A"/>
</linearGradient>
<linearGradient id="paint1_linear_9_815" x1="6.13942" y1="1.4545" x2="19.2619" y2="3.48033" gradientUnits="userSpaceOnUse">
<stop stop-color="#47295C"/>
<stop offset="1" stop-color="#C4528A"/>
</linearGradient>
<linearGradient id="paint2_linear_9_815" x1="11.0792" y1="0.25455" x2="25.6749" y2="3.13438" gradientUnits="userSpaceOnUse">
<stop stop-color="#47295C"/>
<stop offset="1" stop-color="#C4528A"/>
</linearGradient>
</defs>
</svg>
