<svg width="28" height="24" viewBox="0 0 28 24" fill="none" xmlns="http://www.w3.org/2000/svg">
<path d="M25.3013 11.9827L26.5 10.6067L25.9787 10.2333L26.812 9.484L26.1693 9.008L27.0027 8.396L26.4653 7.988L27.3333 3.84133L26.0133 0M26.0133 0L17.5333 3.076H10.4667L1.98666 0L0.666656 3.84133L1.55199 7.988L0.997323 8.396L1.84799 9.00933L1.20532 9.484L2.03866 10.232L1.51866 10.6053L2.71599 11.9827L0.89199 17.4893L2.57732 23.116L8.50132 21.5187L9.64799 22.436L11.9947 24H16.0067L18.352 22.436L19.4987 21.5187L25.44 23.116L27.1427 17.4893L25.3013 11.9827" fill="#F5841F"/>
<path d="M26.0133 0L15.6066 7.496L17.536 3.076L26.0133 0ZM1.98664 0L12.3066 7.564L10.4653 3.076L1.98664 0ZM22.2786 17.388L19.4986 21.5013L25.44 23.0987L27.1426 17.472L22.2786 17.388ZM0.893311 17.4733L2.57731 23.1L8.50131 21.5013L5.73998 17.388L0.893311 17.4733Z" fill="#E27625"/>
<path d="M8.18933 10.4187L6.53867 12.8494L12.4107 13.1054L12.22 6.95203L8.18933 10.4187ZM19.828 10.4187L15.728 6.88403L15.608 13.1054L21.4787 12.8494L19.828 10.4187ZM8.50133 21.5014L12.0627 19.8347L8.988 17.524L8.50133 21.5014ZM15.9547 19.836L19.4987 21.5027L19.012 17.524L15.9547 19.836Z" fill="#E27625"/>
<path d="M19.4986 21.5014L15.9546 19.8347L16.2493 22.0787L16.2146 23.0307L19.4986 21.5014ZM8.50131 21.5014L11.8026 23.0307L11.7853 22.0801L12.0626 19.8361L8.50131 21.5014Z" fill="#D7C1B3"/>
<path d="M11.8533 16.028L8.91867 15.196L11.0027 14.26L11.8533 16.028ZM16.1467 16.028L17.0133 14.26L19.0987 15.196L16.1467 16.028Z" fill="#2F343B"/>
<path d="M8.50132 21.5014L9.02266 17.388L5.73999 17.4734L8.50132 21.5014ZM18.9947 17.388L19.4987 21.5014L22.2787 17.4734L18.9947 17.388ZM21.48 12.8494L15.6067 13.1054L16.1453 16.028L17.0147 14.26L19.0987 15.196L21.48 12.8494ZM8.91866 15.196L11.0027 14.26L11.8547 16.028L12.4107 13.1054L6.53866 12.8494L8.91866 15.196Z" fill="#CC6228"/>
<path d="M6.53867 12.8494L8.988 17.524L8.91867 15.196L6.53867 12.8494ZM19.0987 15.196L19.012 17.524L21.4787 12.8494L19.0987 15.196ZM12.4107 13.1054L11.8547 16.028L12.5493 19.4947L12.7053 14.94L12.4107 13.1054ZM15.6067 13.1054L15.312 14.924L15.4507 19.496L16.1453 16.0294L15.6067 13.1054Z" fill="#E27625"/>
<path d="M16.1467 16.028L15.4507 19.4947L15.9547 19.836L19.012 17.524L19.0987 15.196L16.1467 16.028ZM8.91867 15.196L8.988 17.524L12.0627 19.836L12.5493 19.496L11.8547 16.0294L8.91867 15.196Z" fill="#F5841F"/>
<path d="M16.2147 23.0307L16.2493 22.08L15.972 21.8587H12.0267L11.784 22.08L11.8013 23.0307L8.5 21.5013L9.64667 22.4187L11.9947 24H16.0067L18.352 22.4187L19.4987 21.5013L16.2147 23.0307Z" fill="#C0AD9E"/>
<path d="M15.9546 19.836L15.4506 19.496H12.5493L12.0626 19.836L11.7853 22.08L12.028 21.8586H15.972L16.2493 22.08L15.9546 19.836Z" fill="#2F343B"/>
<path d="M26.4653 7.98933L27.3333 3.84L26.0133 0L15.9547 7.24L19.828 10.4187L25.3013 11.9827L26.5 10.6067L25.9787 10.2333L26.812 9.50133L26.1693 9.008L27.0027 8.396L26.4653 7.98933ZM0.666656 3.84133L1.55199 7.988L0.997323 8.396L1.83066 9.02533L1.18799 9.50133L2.02132 10.232L1.50132 10.6053L2.71599 11.9827L8.18932 10.4187L12.0627 7.24133L1.98666 0L0.666656 3.84133Z" fill="#763E1A"/>
<path d="M25.3013 11.9827L19.828 10.4187L21.4787 12.8494L19.012 17.524L22.2787 17.4734H27.1427L25.3013 11.9827ZM8.18933 10.4187L2.716 11.9827L0.891998 17.4734H5.74L8.988 17.524L6.53866 12.8494L8.18933 10.4187ZM15.6067 13.1054L15.9533 7.24138L17.536 3.07605H10.4653L12.0627 7.24138L12.4093 13.1054L12.5493 14.9401V19.496H15.4507L15.468 14.9401L15.6067 13.1054Z" fill="#F5841F"/>
</svg>
