<svg width="28" height="16" viewBox="0 0 28 16" fill="none" xmlns="http://www.w3.org/2000/svg">
<path d="M6.12535 3.12663C10.4747 -1.0427 17.5253 -1.0427 21.8747 3.12663L22.3973 3.62797C22.4486 3.67655 22.4894 3.73507 22.5173 3.79994C22.5452 3.86481 22.5595 3.93469 22.5595 4.0053C22.5595 4.07591 22.5452 4.14579 22.5173 4.21066C22.4894 4.27553 22.4486 4.33405 22.3973 4.38263L20.6067 6.09863C20.5535 6.1488 20.4831 6.17673 20.41 6.17673C20.3369 6.17673 20.2665 6.1488 20.2133 6.09863L19.4933 5.40797C16.4587 2.5013 11.54 2.5013 8.50668 5.40797L7.73601 6.14797C7.68275 6.19852 7.61211 6.2267 7.53868 6.2267C7.46525 6.2267 7.39461 6.19852 7.34135 6.14797L5.55201 4.43197C5.50077 4.38338 5.45997 4.32487 5.43208 4.25999C5.40419 4.19512 5.38981 4.12525 5.38981 4.05463C5.38981 3.98402 5.40419 3.91415 5.43208 3.84927C5.45997 3.7844 5.50077 3.72589 5.55201 3.6773L6.12535 3.12663ZM25.5773 6.67463L27.1707 8.20263C27.2219 8.25122 27.2627 8.30973 27.2906 8.37461C27.3185 8.43948 27.3329 8.50935 27.3329 8.57997C27.3329 8.65058 27.3185 8.72045 27.2906 8.78533C27.2627 8.8502 27.2219 8.90871 27.1707 8.9573L19.9853 15.844C19.879 15.9443 19.7382 16.0002 19.592 16.0002C19.4458 16.0002 19.3051 15.9443 19.1987 15.844L14.0987 10.956C14.0717 10.9314 14.0365 10.9178 14 10.9178C13.9635 10.9178 13.9283 10.9314 13.9013 10.956L8.80268 15.844C8.69629 15.9443 8.55558 16.0002 8.40935 16.0002C8.26311 16.0002 8.12241 15.9443 8.01601 15.844L0.829347 8.9573C0.778107 8.90871 0.7373 8.8502 0.709413 8.78533C0.681527 8.72045 0.667145 8.65058 0.667145 8.57997C0.667145 8.50935 0.681527 8.43948 0.709413 8.37461C0.7373 8.30973 0.778107 8.25122 0.829347 8.20263L2.42268 6.67463C2.52907 6.57431 2.66978 6.51843 2.81601 6.51843C2.96225 6.51843 3.10295 6.57431 3.20935 6.67463L8.31068 11.5626C8.36401 11.616 8.45201 11.616 8.50668 11.5626L13.6067 6.67463C13.7131 6.57431 13.8538 6.51843 14 6.51843C14.1462 6.51843 14.287 6.57431 14.3933 6.67463L19.4933 11.5626C19.5467 11.616 19.636 11.616 19.6893 11.5626L24.7893 6.67463C24.8957 6.57431 25.0364 6.51843 25.1827 6.51843C25.3289 6.51843 25.4696 6.57431 25.576 6.67463" fill="#3B99FC"/>
</svg>
