<svg width="28" height="28" viewBox="0 0 28 28" fill="none" xmlns="http://www.w3.org/2000/svg">
<path d="M0.666656 14C0.666656 6.63596 6.63599 0.666626 14 0.666626C21.364 0.666626 27.3333 6.63596 27.3333 14C27.3333 21.364 21.364 27.3333 14 27.3333C6.63599 27.3333 0.666656 21.364 0.666656 14Z" fill="#0E5BFF"/>
<path fill-rule="evenodd" clip-rule="evenodd" d="M14 23.4439C16.5047 23.4439 18.9068 22.4489 20.6779 20.6778C22.449 18.9067 23.444 16.5046 23.444 13.9999C23.444 11.4952 22.449 9.09309 20.6779 7.32199C18.9068 5.5509 16.5047 4.55591 14 4.55591C11.4953 4.55591 9.09318 5.5509 7.32208 7.32199C5.55099 9.09309 4.556 11.4952 4.556 13.9999C4.556 16.5046 5.55099 18.9067 7.32208 20.6778C9.09318 22.4489 11.4953 23.4439 14 23.4439ZM12.8893 11.2226C11.9693 11.2226 11.2227 11.9692 11.2227 12.8892V15.1106C11.2227 16.0306 11.9693 16.7772 12.8893 16.7772H15.1107C16.0307 16.7772 16.7773 16.0306 16.7773 15.1106V12.8892C16.7773 11.9692 16.0307 11.2226 15.1107 11.2226H12.8893Z" fill="white"/>
</svg>
